<?xml version="1.0" encoding="UTF-8" standalone="no"?>
<svg
   xmlns:dc="http://purl.org/dc/elements/1.1/"
   xmlns:cc="http://creativecommons.org/ns#"
   xmlns:rdf="http://www.w3.org/1999/02/22-rdf-syntax-ns#"
   xmlns:svg="http://www.w3.org/2000/svg"
   xmlns="http://www.w3.org/2000/svg"
   xmlns:sodipodi="http://sodipodi.sourceforge.net/DTD/sodipodi-0.dtd"
   xmlns:inkscape="http://www.inkscape.org/namespaces/inkscape"
   width="210mm"
   height="297mm"
   viewBox="0 0 210 297"
   version="1.1"
   id="svg8"
   inkscape:version="1.0.1 (3bc2e813f5, 2020-09-07)"
   sodipodi:docname="logo.svg">
  <defs
     id="defs2" />
  <sodipodi:namedview
     id="base"
     pagecolor="#ffffff"
     bordercolor="#666666"
     borderopacity="1.0"
     inkscape:pageopacity="0.0"
     inkscape:pageshadow="2"
     inkscape:zoom="0.35"
     inkscape:cx="262.03884"
     inkscape:cy="652.40639"
     inkscape:document-units="mm"
     inkscape:current-layer="layer1"
     inkscape:document-rotation="0"
     showgrid="false"
     inkscape:window-width="1360"
     inkscape:window-height="705"
     inkscape:window-x="-8"
     inkscape:window-y="-8"
     inkscape:window-maximized="1" />
  <metadata
     id="metadata5">
    <rdf:RDF>
      <cc:Work
         rdf:about="">
        <dc:format>image/svg+xml</dc:format>
        <dc:type
           rdf:resource="http://purl.org/dc/dcmitype/StillImage" />
        <dc:title></dc:title>
      </cc:Work>
    </rdf:RDF>
  </metadata>
  <g
     inkscape:label="Capa 1"
     inkscape:groupmode="layer"
     id="layer1">
    <g
       id="g853"
       transform="matrix(1.5282807,0,0,1.5282807,-69.395319,-102.03991)"
       style="fill:#009bd6;fill-opacity:1;stroke:#00cfff;stroke-opacity:1">
      <path
         style="fill:#009bd6;stroke-width:2.02031;stroke-linecap:round;paint-order:stroke fill markers;fill-opacity:1;stroke:#00cfff;stroke-opacity:1"
         d="m 661.41945,623.18773 c -6.99795,-2.58872 -8.832,-6.86454 -10.00085,-23.31548 -3.99293,-56.19859 -26.10733,-106.10602 -64.24251,-144.98146 -25.72226,-26.22158 -64.83252,-47.28307 -109.17502,-58.79248 -39.82781,-10.33758 -97.35188,-4.42588 -136.24798,14.0021 -30.50135,14.45076 -69.92834,46.9149 -88.379,72.77119 -20.11272,28.18546 -33.40467,65.56957 -38.35261,107.86819 -3.36298,28.7493 -5.63179,33.0833 -16.8126,32.11638 -4.65124,-0.40224 -8.20443,-2.2851 -10.66944,-5.65384 -3.35514,-4.58518 -3.50545,-6.91306 -1.63067,-25.25381 3.45646,-33.81422 12.33759,-66.22199 25.19111,-91.92389 13.64982,-27.29416 48.70217,-70.21928 71.94583,-88.10486 37.64654,-28.96835 100.19472,-49.29265 151.62189,-49.26776 34.18397,0.0165 80.57686,11.56897 111.3592,27.72987 76.37305,40.09628 130.4155,123.68434 133.11461,205.88983 0.51057,15.55071 0.0275,19.10643 -3.0601,22.527 -4.45317,4.93333 -9.28247,6.37898 -14.66186,4.38902 z"
         id="path849"
         transform="scale(0.26458333)" />
      <path
         style="fill:#009bd6;stroke-width:2.02031;stroke-linecap:round;paint-order:stroke fill markers;fill-opacity:1;stroke:#00cfff;stroke-opacity:1"
         d="M 418.11817,697.00438 V 572.75562 h -91.92388 -91.92388 v -13.13199 -13.13198 h 199.00005 199.00005 v 13.13198 13.13199 h -91.92388 -91.92388 v 124.24876 124.24876 h -15.15229 -15.15229 z"
         id="path847"
         transform="scale(0.26458333)" />
    </g>
  </g>
</svg>
